<svg xmlns="http://www.w3.org/2000/svg" width="500" height="390" viewBox="0 0 500 390">
  <title>連結決算の概要</title>
  <defs>
    <style>
      .t { font-family: "Noto Sans JP", "Hiragino Sans", "Yu Gothic", "Meiryo", sans-serif; }
    </style>
    <filter id="s" x="-20%" y="-20%" width="140%" height="140%">
      <feDropShadow dx="0" dy="3" stdDeviation="5" flood-color="#202124" flood-opacity="0.08"/>
    </filter>
    <clipPath id="cardClip">
      <rect width="164" height="144" rx="8"/>
    </clipPath>
  </defs>

  <rect width="500" height="390" fill="#ffffff"/>

  <!-- Corporate group background -->
  <rect x="16" y="6" width="468" height="196" rx="18" fill="#f8f9fa" stroke="#dadce0" stroke-width="1"/>

  <!-- Group label badge -->
  <rect x="190" y="12" width="120" height="22" rx="11" fill="#e8eaed"/>
  <text class="t" x="250" y="23" text-anchor="middle" dominant-baseline="middle" font-size="12" font-weight="800" fill="#5f6368">企業グループ</text>

  <!-- ===== Parent company card ===== -->
  <g transform="translate(32, 44)" filter="url(#s)">
    <rect width="164" height="144" rx="8" fill="#fff" stroke="#1a73e8" stroke-width="1.6"/>
    <rect width="164" height="26" fill="#1a73e8" clip-path="url(#cardClip)"/>
    <text class="t" x="82" y="13" text-anchor="middle" dominant-baseline="middle" font-size="14" font-weight="800" fill="#fff">親会社</text>

    <text class="t" x="144" y="58" text-anchor="end" font-size="14" font-weight="700" fill="#5f6368">売上</text>
    <line x1="12" y1="72" x2="152" y2="72" stroke="#dadce0" stroke-width="1"/>
    <text class="t" x="144" y="92" text-anchor="end" font-size="14" font-weight="700" fill="#5f6368">貸付</text>
    <line x1="12" y1="104" x2="152" y2="104" stroke="#dadce0" stroke-width="1"/>
    <text class="t" x="144" y="124" text-anchor="end" font-size="14" font-weight="700" fill="#5f6368">配当</text>
  </g>

  <!-- ===== Child company card ===== -->
  <g transform="translate(304, 44)" filter="url(#s)">
    <rect width="164" height="144" rx="8" fill="#fff" stroke="#34a853" stroke-width="1.6"/>
    <rect width="164" height="26" fill="#34a853" clip-path="url(#cardClip)"/>
    <text class="t" x="82" y="13" text-anchor="middle" dominant-baseline="middle" font-size="14" font-weight="800" fill="#fff">子会社</text>

    <text class="t" x="20" y="58" font-size="14" font-weight="700" fill="#5f6368">仕入</text>
    <line x1="12" y1="72" x2="152" y2="72" stroke="#dadce0" stroke-width="1"/>
    <text class="t" x="20" y="92" font-size="14" font-weight="700" fill="#5f6368">借入</text>
    <line x1="12" y1="104" x2="152" y2="104" stroke="#dadce0" stroke-width="1"/>
    <text class="t" x="20" y="124" font-size="14" font-weight="700" fill="#5f6368">配当支払</text>
  </g>

  <!-- ===== Internal transactions with correspondence ===== -->
  <text class="t" x="250" y="82" text-anchor="middle" font-size="15" font-weight="800" fill="#ea4335">内部取引</text>

  <!-- Arrow 1: 売上 ↔ 仕入 -->
  <polygon points="204,100 216,94 216,106" fill="#9aa0a6"/>
  <line x1="216" y1="100" x2="284" y2="100" stroke="#9aa0a6" stroke-width="3" stroke-linecap="round"/>
  <polygon points="296,100 284,94 284,106" fill="#9aa0a6"/>
  <circle cx="250" cy="100" r="10" fill="#fff"/>
  <line x1="243" y1="93" x2="257" y2="107" stroke="#ea4335" stroke-width="3" stroke-linecap="round"/>
  <line x1="257" y1="93" x2="243" y2="107" stroke="#ea4335" stroke-width="3" stroke-linecap="round"/>

  <!-- Arrow 2: 貸付 ↔ 借入 -->
  <polygon points="204,132 216,126 216,138" fill="#9aa0a6"/>
  <line x1="216" y1="132" x2="284" y2="132" stroke="#9aa0a6" stroke-width="3" stroke-linecap="round"/>
  <polygon points="296,132 284,126 284,138" fill="#9aa0a6"/>
  <circle cx="250" cy="132" r="10" fill="#fff"/>
  <line x1="243" y1="125" x2="257" y2="139" stroke="#ea4335" stroke-width="3" stroke-linecap="round"/>
  <line x1="257" y1="125" x2="243" y2="139" stroke="#ea4335" stroke-width="3" stroke-linecap="round"/>

  <!-- Arrow 3: 配当 ↔ 配当支払 -->
  <polygon points="204,164 216,158 216,170" fill="#9aa0a6"/>
  <line x1="216" y1="164" x2="284" y2="164" stroke="#9aa0a6" stroke-width="3" stroke-linecap="round"/>
  <polygon points="296,164 284,158 284,170" fill="#9aa0a6"/>
  <circle cx="250" cy="164" r="10" fill="#fff"/>
  <line x1="243" y1="157" x2="257" y2="171" stroke="#ea4335" stroke-width="3" stroke-linecap="round"/>
  <line x1="257" y1="157" x2="243" y2="171" stroke="#ea4335" stroke-width="3" stroke-linecap="round"/>

  <!-- ===== External transactions ===== -->
  <text class="t" x="250" y="232" text-anchor="middle" font-size="12" font-weight="800" fill="#5f6368">外部取引</text>

  <!-- Horizontal connector -->
  <line x1="114" y1="244" x2="386" y2="244" stroke="#9aa0a6" stroke-width="3" stroke-linecap="round"/>

  <!-- Left downward arrow (parent → third party) -->
  <line x1="114" y1="244" x2="114" y2="304" stroke="#9aa0a6" stroke-width="3" stroke-linecap="round"/>
  <polygon points="114,312 108,304 120,304" fill="#9aa0a6"/>
  <!-- ✓ mark -->
  <circle cx="114" cy="278" r="10" fill="#fff"/>
  <path d="M108,278 L112,282 L120,274" stroke="#0d904f" stroke-width="3" fill="none" stroke-linecap="round" stroke-linejoin="round"/>

  <!-- Right downward arrow (child → third party) -->
  <line x1="386" y1="244" x2="386" y2="304" stroke="#9aa0a6" stroke-width="3" stroke-linecap="round"/>
  <polygon points="386,312 380,304 392,304" fill="#9aa0a6"/>
  <!-- ✓ mark -->
  <circle cx="386" cy="278" r="10" fill="#fff"/>
  <path d="M380,278 L384,282 L392,274" stroke="#0d904f" stroke-width="3" fill="none" stroke-linecap="round" stroke-linejoin="round"/>

  <!-- ===== Third party (wider) ===== -->
  <g transform="translate(56, 318)" filter="url(#s)">
    <rect width="388" height="48" rx="14" fill="#fff" stroke="#9aa0a6" stroke-width="1.4"/>
    <text class="t" x="194" y="19" text-anchor="middle" dominant-baseline="middle" font-size="16" font-weight="900" fill="#3c4043">第三者</text>
    <text class="t" x="194" y="38" text-anchor="middle" dominant-baseline="middle" font-size="11" font-weight="700" fill="#9aa0a6">（グループ外）</text>
  </g>
</svg>
