<svg xmlns="http://www.w3.org/2000/svg" width="500" height="441" viewBox="0 0 500 441">
  <defs>
    <style>
      .t { font-family: "Noto Sans JP", "Hiragino Sans", "Yu Gothic", "Meiryo", sans-serif; }
    </style>
    <filter id="s" x="-20%" y="-20%" width="140%" height="140%">
      <feDropShadow dx="0" dy="3" stdDeviation="5" flood-color="#202124" flood-opacity="0.08"/>
    </filter>
    <marker id="a" markerWidth="8" markerHeight="6" refX="7" refY="3" orient="auto">
      <polygon points="0 0, 8 3, 0 6" fill="#9aa0a6"/>
    </marker>
    <marker id="ab" markerWidth="12" markerHeight="10" refX="11" refY="5" orient="auto" markerUnits="userSpaceOnUse">
      <polygon points="0 0, 12 5, 0 10" fill="#1a73e8"/>
    </marker>
    <marker id="ag" markerWidth="12" markerHeight="10" refX="11" refY="5" orient="auto" markerUnits="userSpaceOnUse">
      <polygon points="0 0, 12 5, 0 10" fill="#34a853"/>
    </marker>

    <!-- Piece A: tab top/right, slot bottom/left -->
    <path id="pieceA" d="M0,0 H25 C25,-2 23,-5 21,-7 C19,-9 19,-11 19,-12 C19,-15 25,-16 32.5,-16 C40,-16 46,-15 46,-12 C46,-11 46,-9 44,-7 C42,-5 40,-2 40,0 H65 V25 C67,25 70,23 72,21 C74,19 76,19 77,19 C80,19 81,25 81,32.5 C81,40 80,46 77,46 C76,46 74,46 72,44 C70,42 67,40 65,40 V65 H40 C40,63 42,60 44,58 C46,56 46,54 46,53 C46,50 40,49 32.5,49 C25,49 19,50 19,53 C19,54 19,56 21,58 C23,60 25,63 25,65 H0 V40 C2,40 5,42 7,44 C9,46 11,46 12,46 C15,46 16,40 16,32.5 C16,25 15,19 12,19 C11,19 9,19 7,21 C5,23 2,25 0,25 V0 Z"/>

    <!-- Piece B: slot top, tab right, tab bottom, slot left -->
    <path id="pieceB" d="M0,0 H25 C25,2 23,5 21,7 C19,9 19,11 19,12 C19,15 25,16 32.5,16 C40,16 46,15 46,12 C46,11 46,9 44,7 C42,5 40,2 40,0 H65 V25 C67,25 70,23 72,21 C74,19 76,19 77,19 C80,19 81,25 81,32.5 C81,40 80,46 77,46 C76,46 74,46 72,44 C70,42 67,40 65,40 V65 H40 C40,67 42,70 44,72 C46,74 46,76 46,77 C46,80 40,81 32.5,81 C25,81 19,80 19,77 C19,76 19,74 21,72 C23,70 25,67 25,65 H0 V40 C2,40 5,42 7,44 C9,46 11,46 12,46 C15,46 16,40 16,32.5 C16,25 15,19 12,19 C11,19 9,19 7,21 C5,23 2,25 0,25 V0 Z"/>

    <!-- Piece C: tab top, slot right, slot bottom, tab left -->
    <path id="pieceC" d="M0,0 H25 C25,-2 23,-5 21,-7 C19,-9 19,-11 19,-12 C19,-15 25,-16 32.5,-16 C40,-16 46,-15 46,-12 C46,-11 46,-9 44,-7 C42,-5 40,-2 40,0 H65 V25 C63,25 60,23 58,21 C56,19 54,19 53,19 C50,19 49,25 49,32.5 C49,40 50,46 53,46 C54,46 56,46 58,44 C60,42 63,40 65,40 V65 H40 C40,63 42,60 44,58 C46,56 46,54 46,53 C46,50 40,49 32.5,49 C25,49 19,50 19,53 C19,54 19,56 21,58 C23,60 25,63 25,65 H0 V40 C-2,40 -5,42 -7,44 C-9,46 -11,46 -12,46 C-15,46 -16,40 -16,32.5 C-16,25 -15,19 -12,19 C-11,19 -9,19 -7,21 C-5,23 -2,25 0,25 V0 Z"/>

    <linearGradient id="boardGrad" x1="0%" y1="0%" x2="100%" y2="100%">
      <stop offset="0%" stop-color="#1a73e8"/>
      <stop offset="100%" stop-color="#1565c0"/>
    </linearGradient>
    <clipPath id="boardClip">
      <rect width="195" height="195" rx="10"/>
    </clipPath>
  </defs>

  <rect width="500" height="441" fill="#ffffff"/>

  <!-- ===== TOP: 単体決算 ===== -->
  <rect x="8" y="6" width="484" height="176" rx="18" fill="#f8f9fa" stroke="#e8eaed" stroke-width="1"/>
  <rect x="26" y="18" width="110" height="24" rx="12" fill="#5f6368"/>
  <text class="t" x="81" y="30" text-anchor="middle" dominant-baseline="middle" font-size="14" font-weight="800" fill="#fff">単体決算</text>
  <text class="t" x="150" y="30" dominant-baseline="middle" font-size="12" font-weight="700" fill="#9aa0a6">日記のイメージ</text>

  <!-- ── Stage 1: Scattered diary pages (scaled 0.76) ── -->
  <g transform="translate(49, 56) scale(0.76)">
    <g transform="translate(14,-6) rotate(14, 30, 38)">
      <rect width="56" height="72" rx="3" fill="#f1f3f4" stroke="#dadce0" stroke-width="0.7"/>
      <line x1="5" y1="14" x2="50" y2="14" stroke="#dadce0" stroke-width="0.6"/>
      <line x1="5" y1="22" x2="44" y2="22" stroke="#dadce0" stroke-width="0.6"/>
    </g>
    <g transform="translate(-2, 10) rotate(-10, 30, 38)" filter="url(#s)">
      <rect width="56" height="72" rx="3" fill="#f8f9fa" stroke="#c8cacd" stroke-width="0.8"/>
      <text class="t" x="5" y="10" font-size="6" font-weight="700" fill="#9aa0a6">6/15</text>
      <line x1="5" y1="14" x2="50" y2="14" stroke="#dadce0" stroke-width="0.7"/>
      <line x1="5" y1="22" x2="42" y2="22" stroke="#dadce0" stroke-width="0.7"/>
      <line x1="5" y1="30" x2="50" y2="30" stroke="#dadce0" stroke-width="0.7"/>
    </g>
    <g transform="translate(8, 18) rotate(4, 30, 38)" filter="url(#s)">
      <rect width="56" height="72" rx="3" fill="#fff" stroke="#9aa0a6" stroke-width="1.2"/>
      <text class="t" x="5" y="10" font-size="6" font-weight="700" fill="#9aa0a6">11/1</text>
      <line x1="5" y1="14" x2="50" y2="14" stroke="#dadce0" stroke-width="0.8"/>
      <line x1="5" y1="22" x2="42" y2="22" stroke="#dadce0" stroke-width="0.8"/>
      <line x1="5" y1="30" x2="50" y2="30" stroke="#dadce0" stroke-width="0.8"/>
      <line x1="5" y1="38" x2="46" y2="38" stroke="#dadce0" stroke-width="0.8"/>
      <line x1="5" y1="46" x2="50" y2="46" stroke="#dadce0" stroke-width="0.8"/>
      <line x1="5" y1="54" x2="38" y2="54" stroke="#dadce0" stroke-width="0.8"/>
      <line x1="5" y1="62" x2="50" y2="62" stroke="#dadce0" stroke-width="0.8"/>
    </g>
  </g>
  <text class="t" x="80" y="152" text-anchor="middle" font-size="13" font-weight="900" fill="#3c4043">日々の仕訳</text>

  <!-- Arrow 1 -->
  <line x1="123" y1="98" x2="208" y2="98" stroke="#9aa0a6" stroke-width="2" marker-end="url(#a)"/>

  <!-- ── Stage 2: Neatly stacked diary pages (scaled 0.76) ── -->
  <g transform="translate(217, 52) scale(0.76)">
    <rect x="10" y="14" width="68" height="86" rx="3" fill="#e8eaed" stroke="#dadce0" stroke-width="0.5"/>
    <rect x="8" y="11" width="68" height="86" rx="3" fill="#ecedef" stroke="#dadce0" stroke-width="0.5"/>
    <rect x="6" y="8" width="68" height="86" rx="3" fill="#f1f3f4" stroke="#dadce0" stroke-width="0.6"/>
    <rect x="4" y="5" width="68" height="86" rx="3" fill="#f4f5f6" stroke="#dadce0" stroke-width="0.6"/>
    <rect x="2" y="3" width="68" height="86" rx="3" fill="#f8f9fa" stroke="#d2d4d8" stroke-width="0.7"/>
    <g filter="url(#s)">
      <rect x="0" y="0" width="68" height="86" rx="3" fill="#fff" stroke="#9aa0a6" stroke-width="1.2"/>
      <text class="t" x="6" y="12" font-size="7.5" font-weight="700" fill="#9aa0a6">3/31</text>
      <line x1="6" y1="18" x2="62" y2="18" stroke="#dadce0" stroke-width="0.9"/>
      <line x1="6" y1="27" x2="52" y2="27" stroke="#dadce0" stroke-width="0.9"/>
      <line x1="6" y1="36" x2="62" y2="36" stroke="#dadce0" stroke-width="0.9"/>
      <line x1="6" y1="45" x2="44" y2="45" stroke="#dadce0" stroke-width="0.9"/>
      <line x1="6" y1="54" x2="62" y2="54" stroke="#dadce0" stroke-width="0.9"/>
      <line x1="6" y1="63" x2="48" y2="63" stroke="#dadce0" stroke-width="0.9"/>
      <line x1="6" y1="72" x2="62" y2="72" stroke="#dadce0" stroke-width="0.9"/>
      <line x1="6" y1="80" x2="56" y2="80" stroke="#dadce0" stroke-width="0.9"/>
    </g>
  </g>
  <text class="t" x="250" y="152" text-anchor="middle" font-size="13" font-weight="900" fill="#3c4043">帳簿に蓄積</text>

  <!-- Arrow 2 -->
  <line x1="285" y1="98" x2="360" y2="98" stroke="#9aa0a6" stroke-width="2.5" marker-end="url(#a)"/>

  <!-- ── Stage 3: 個別FS (scaled 0.76) ── -->
  <g transform="translate(370, 44) scale(0.76)">
    <rect x="5" y="7" width="128" height="124" rx="8" fill="#e0e2e6" stroke="#dadce0" stroke-width="0.5"/>
    <rect x="3" y="4" width="128" height="124" rx="8" fill="#ecedef" stroke="#dadce0" stroke-width="0.5"/>
    <g filter="url(#s)">
      <rect x="0" y="0" width="128" height="124" rx="8" fill="#fff" stroke="#5f6368" stroke-width="1.8"/>
      <rect x="0" y="0" width="128" height="28" rx="8" fill="#5f6368"/>
      <rect x="0" y="16" width="128" height="12" fill="#5f6368"/>
      <text class="t" x="64" y="14" text-anchor="middle" dominant-baseline="middle" font-size="14" font-weight="800" fill="#fff">個別FS</text>
      <rect x="10" y="36" width="46" height="8" rx="2" fill="#f1f3f4"/>
      <rect x="64" y="36" width="54" height="8" rx="2" fill="#f1f3f4"/>
      <line x1="10" y1="54" x2="118" y2="54" stroke="#5f6368" stroke-width="0.8" opacity="0.18"/>
      <line x1="10" y1="66" x2="100" y2="66" stroke="#e8eaed" stroke-width="1.2"/>
      <line x1="10" y1="78" x2="118" y2="78" stroke="#e8eaed" stroke-width="1.2"/>
      <line x1="10" y1="90" x2="80" y2="90" stroke="#e8eaed" stroke-width="1.2"/>
      <line x1="10" y1="102" x2="118" y2="102" stroke="#5f6368" stroke-width="0.8" opacity="0.18"/>
      <line x1="10" y1="114" x2="62" y2="114" stroke="#e8eaed" stroke-width="1.2"/>
    </g>
  </g>

  <!-- ===== DIVIDER ===== -->
  <line x1="35" y1="189" x2="465" y2="189" stroke="#dadce0" stroke-width="1"/>

  <!-- ===== BOTTOM: 連結決算 ===== -->
  <rect x="8" y="197" width="484" height="238" rx="18" fill="#f8f9fa" stroke="#e8eaed" stroke-width="1"/>
  <rect x="26" y="209" width="110" height="24" rx="12" fill="#1a73e8"/>
  <text class="t" x="81" y="221" text-anchor="middle" dominant-baseline="middle" font-size="14" font-weight="800" fill="#fff">連結決算</text>
  <text class="t" x="150" y="221" dominant-baseline="middle" font-size="12" font-weight="700" fill="#9aa0a6">パズルのイメージ</text>

  <!-- 子会社A -->
  <text class="t" x="100" y="271" text-anchor="end" font-size="14" font-weight="900" fill="#34a853">子会社A</text>
  <g transform="translate(116, 253) scale(0.65) rotate(-10, 32.5, 32.5)" filter="url(#s)">
    <use href="#pieceA" fill="#66bb6a" stroke="#34a853" stroke-width="2.2"/>
  </g>

  <!-- 子会社B -->
  <text class="t" x="80" y="327" text-anchor="end" font-size="14" font-weight="900" fill="#34a853">子会社B</text>
  <g transform="translate(94, 309) scale(0.65) rotate(5, 32.5, 32.5)" filter="url(#s)">
    <use href="#pieceB" fill="#34a853" stroke="#2e7d32" stroke-width="2.2"/>
  </g>

  <!-- 親会社 -->
  <text class="t" x="86" y="385" text-anchor="end" font-size="14" font-weight="900" fill="#1a73e8">親会社</text>
  <g transform="translate(106, 367) scale(0.65) rotate(-8, 32.5, 32.5)" filter="url(#s)">
    <use href="#pieceC" fill="#1565c0" stroke="#0d47a1" stroke-width="2.2"/>
  </g>

  <!-- Converging arrows -->
  <path d="M168,275 C218,277 260,289 305,303" fill="none" stroke="#34a853" stroke-width="3" marker-end="url(#ag)"/>
  <path d="M148,329 C208,329 258,329 305,333" fill="none" stroke="#34a853" stroke-width="3" marker-end="url(#ag)"/>
  <path d="M158,387 C218,385 258,375 305,367" fill="none" stroke="#1a73e8" stroke-width="3" marker-end="url(#ab)"/>

  <!-- Assembled puzzle board (scaled 0.82) -->
  <g transform="translate(305, 255) scale(0.82)" filter="url(#s)">
    <!-- Colored rows following horizontal puzzle seam curves -->
    <g clip-path="url(#boardClip)">
      <!-- Base: 子会社A (light green) fills entire board -->
      <rect x="0" y="0" width="195" height="195" fill="#66bb6a"/>
      <!-- 子会社B + 親会社: below seam at y=65 -->
      <path d="M0,65 H25 C25,63 23,60 21,58 C19,56 19,54 19,53 C19,50 25,49 32.5,49 C40,49 46,50 46,53 C46,54 46,56 44,58 C42,60 40,63 40,65 H90 C90,67 88,70 86,72 C84,74 84,76 84,77 C84,80 90,81 97.5,81 C105,81 111,80 111,77 C111,76 111,74 109,72 C107,70 105,67 105,65 H155 C155,63 153,60 151,58 C149,56 149,54 149,53 C149,50 155,49 162.5,49 C170,49 176,50 176,53 C176,54 176,56 174,58 C172,60 170,63 170,65 H195 L195,195 L0,195 Z" fill="#34a853"/>
      <!-- 親会社: below seam at y=130 -->
      <path d="M0,130 H25 C25,132 23,135 21,137 C19,139 19,141 19,142 C19,145 25,146 32.5,146 C40,146 46,145 46,142 C46,141 46,139 44,137 C42,135 40,132 40,130 H90 C90,128 88,125 86,123 C84,121 84,119 84,118 C84,115 90,114 97.5,114 C105,114 111,115 111,118 C111,119 111,121 109,123 C107,125 105,128 105,130 H155 C155,132 153,135 151,137 C149,139 149,141 149,142 C149,145 155,146 162.5,146 C170,146 176,145 176,142 C176,141 176,139 174,137 C172,135 170,132 170,130 H195 L195,195 L0,195 Z" fill="#1a73e8"/>
    </g>
    <rect x="0" y="0" width="195" height="195" rx="10" fill="none" stroke="#0d47a1" stroke-width="2.5"/>

    <!-- Horizontal seam 1 (y=65) -->
    <path d="M0,65 H25 C25,63 23,60 21,58 C19,56 19,54 19,53 C19,50 25,49 32.5,49 C40,49 46,50 46,53 C46,54 46,56 44,58 C42,60 40,63 40,65 H90 C90,67 88,70 86,72 C84,74 84,76 84,77 C84,80 90,81 97.5,81 C105,81 111,80 111,77 C111,76 111,74 109,72 C107,70 105,67 105,65 H155 C155,63 153,60 151,58 C149,56 149,54 149,53 C149,50 155,49 162.5,49 C170,49 176,50 176,53 C176,54 176,56 174,58 C172,60 170,63 170,65 H195"
          fill="none" stroke="#fff" stroke-width="1.5" opacity="0.3"/>

    <!-- Horizontal seam 2 (y=130) -->
    <path d="M0,130 H25 C25,132 23,135 21,137 C19,139 19,141 19,142 C19,145 25,146 32.5,146 C40,146 46,145 46,142 C46,141 46,139 44,137 C42,135 40,132 40,130 H90 C90,128 88,125 86,123 C84,121 84,119 84,118 C84,115 90,114 97.5,114 C105,114 111,115 111,118 C111,119 111,121 109,123 C107,125 105,128 105,130 H155 C155,132 153,135 151,137 C149,139 149,141 149,142 C149,145 155,146 162.5,146 C170,146 176,145 176,142 C176,141 176,139 174,137 C172,135 170,132 170,130 H195"
          fill="none" stroke="#fff" stroke-width="1.5" opacity="0.3"/>

    <!-- Left vertical seam (x=65) -->
    <path d="M65,0 V25 C63,25 60,23 58,21 C56,19 54,19 53,19 C50,19 49,25 49,32.5 C49,40 50,46 53,46 C54,46 56,46 58,44 C60,42 63,40 65,40 V90 C67,90 70,88 72,86 C74,84 76,84 77,84 C80,84 81,90 81,97.5 C81,105 80,111 77,111 C76,111 74,111 72,109 C70,107 67,105 65,105 V155 C63,155 60,153 58,151 C56,149 54,149 53,149 C50,149 49,155 49,162.5 C49,170 50,176 53,176 C54,176 56,176 58,174 C60,172 63,170 65,170 V195"
          fill="none" stroke="#fff" stroke-width="1.5" opacity="0.3"/>

    <!-- Right vertical seam (x=130) -->
    <path d="M130,0 V25 C132,25 135,23 137,21 C139,19 141,19 142,19 C145,19 146,25 146,32.5 C146,40 145,46 142,46 C141,46 139,46 137,44 C135,42 132,40 130,40 V90 C128,90 125,88 123,86 C121,84 119,84 118,84 C115,84 114,90 114,97.5 C114,105 115,111 118,111 C119,111 121,111 123,109 C125,107 128,105 130,105 V155 C132,155 135,153 137,151 C139,149 141,149 142,149 C145,149 146,155 146,162.5 C146,170 145,176 142,176 C141,176 139,176 137,174 C135,172 132,170 130,170 V195"
          fill="none" stroke="#fff" stroke-width="1.5" opacity="0.3"/>

    <text class="t" x="97" y="98" text-anchor="middle" dominant-baseline="middle"
          font-size="30" font-weight="900" fill="#fff">連結FS</text>
  </g>

</svg>
