<svg xmlns="http://www.w3.org/2000/svg" viewBox="-20 -20 260 220" role="img" aria-labelledby="title">
  <title id="title">Reset puzzle pieces</title>
  <defs>
    <linearGradient id="puzzleRed" x1="0" y1="0" x2="1" y2="1">
      <stop offset="0%" stop-color="#f25b53" />
      <stop offset="100%" stop-color="#d83d35" />
    </linearGradient>
  </defs>

  <g>
    <g transform="translate(0 0) rotate(-18 32 32)">
      <g fill="url(#puzzleRed)">
        <rect x="0" y="0" width="64" height="64" rx="8" />
        <circle cx="32" cy="-6" r="9" />
        <circle cx="-6" cy="32" r="9" />
        <circle cx="70" cy="32" r="9" />
      </g>
      <circle cx="32" cy="65" r="11" fill="#ffffff" />
    </g>
    <g transform="translate(150 -2) rotate(20 32 32)">
      <g fill="url(#puzzleRed)">
        <rect x="0" y="0" width="64" height="64" rx="8" />
        <circle cx="70" cy="32" r="9" />
      </g>
      <circle cx="32" cy="-1" r="11" fill="#ffffff" />
      <circle cx="-1" cy="32" r="11" fill="#ffffff" />
      <circle cx="32" cy="65" r="11" fill="#ffffff" />
    </g>
    <g transform="translate(12 118) rotate(14 32 32)">
      <g fill="url(#puzzleRed)">
        <rect x="0" y="0" width="64" height="64" rx="8" />
        <circle cx="32" cy="-6" r="9" />
        <circle cx="-6" cy="32" r="9" />
        <circle cx="32" cy="70" r="9" />
      </g>
      <circle cx="65" cy="32" r="11" fill="#ffffff" />
    </g>
    <g transform="translate(155 118) rotate(-16 32 32)">
      <g fill="url(#puzzleRed)">
        <rect x="0" y="0" width="64" height="64" rx="8" />
        <circle cx="32" cy="-6" r="9" />
        <circle cx="-6" cy="32" r="9" />
        <circle cx="70" cy="32" r="9" />
        <circle cx="32" cy="70" r="9" />
      </g>
    </g>
  </g>
</svg>
